<svg version="1.2" xmlns="http://www.w3.org/2000/svg" viewBox="0 0 800 600" width="800" height="600">
	<title>UWTacomaBG1-svg</title>
	<style>
		.s0 { fill: none;stroke: #342c5c;stroke-width: 2.5 } 
		.s1 { fill: #342c5c } 
	</style>
	<g id="layer1">
		<path id="path4578" class="s0" d="m29 592.7h-20.6v-584.3h783.1v584.4h-615.1"/>
		<g id="text4582">
			<path id="Amin Roshani" class="s1" aria-label="Amin Roshani"  d="m43.9 581.2c-0.2 0.1-0.4 0.3-0.3 0.5 0.1 0.6-0.2 1.5-0.5 2.1-1.7 2.7-5 7.8-6.9 9.6-1 1-1.8 1.6-2.5 1.8-0.3 0.1-0.7 0.2-0.8 0.6 0 0.2 0.2 0.3 0.8 0.2 1.5-0.1 2.6-0.2 3.9 0 0.3 0.1 0.5 0.1 0.6-0.2 0.1-0.4-0.6-0.6-0.8-0.8-0.2-0.6 1.1-2.9 1.8-3.6 0.2-0.2 0.3-0.4 1.1-0.4 0.6 0 4.6 0 5.4 0.1 0.3 0 0.3 0.1 0.5 0.4 0.2 0.3 0.4 2.1 0.4 2.6 0 0.7-0.2 1.1-1.1 1.5-0.2 0-0.3 0.1-0.3 0.3-0.1 0.3 0.3 0.2 0.6 0.2 1.5-0.1 2.8-0.4 4.6 0 0.2 0 0.6-0.1 0.7-0.4 0.1-0.3 0-0.4-0.2-0.4-1.6-0.3-1.7-1.4-2.1-2.6-0.2-0.6-2.5-11.1-2.7-11.9 0-0.5-0.1-0.5-0.4-0.5-0.6 0.2-1.5 0.6-1.8 0.9zm0.3 2.6c0.2 0 0.3 0.2 0.3 0.4 0.5 1.5 1.2 4.1 1.5 5.4 0.1 0.5-0.1 0.6-0.4 0.7-2 0-3.3 0-5.2 0-0.4 0-0.4-0.2-0.2-0.6 0.1-0.4 3.2-5.1 3.3-5.3 0.2-0.2 0.4-0.6 0.7-0.6zm-1-2.6c-0.2 0.1-0.4 0.3-0.3 0.5 0.1 0.6-0.2 1.5-0.5 2.1-1.7 2.7-5 7.8-6.9 9.6-1 1-1.8 1.6-2.5 1.8-0.3 0.1-0.7 0.2-0.8 0.6 0 0.2 0.2 0.3 0.8 0.2 1.5-0.1 2.6-0.2 3.9 0 0.3 0.1 0.6 0.1 0.6-0.2 0.1-0.4-0.6-0.6-0.7-0.8-0.3-0.6 1-2.9 1.7-3.6 0.2-0.2 0.3-0.4 1.1-0.4 0.6 0 4.6 0 5.4 0.1 0.4 0 0.4 0.1 0.5 0.4 0.2 0.3 0.4 2.1 0.4 2.6 0 0.7-0.2 1.1-1.1 1.5-0.2 0-0.3 0.1-0.3 0.3 0 0.3 0.3 0.2 0.6 0.2 1.5-0.1 2.8-0.4 4.7 0 0.2 0 0.6-0.1 0.6-0.4 0.1-0.3 0-0.4-0.2-0.4-1.5-0.3-1.7-1.4-2.1-2.6-0.2-0.6-2.5-11.1-2.6-11.9-0.1-0.5-0.2-0.5-0.5-0.5-0.6 0.2-1.5 0.6-1.8 0.9zm0.3 2.6c0.2 0 0.3 0.2 0.3 0.4 0.6 1.5 1.3 4.1 1.5 5.4 0.1 0.5 0 0.6-0.4 0.7-2 0-3.3 0-5.2 0-0.4 0-0.4-0.2-0.2-0.6 0.1-0.4 3.2-5.1 3.3-5.3 0.2-0.2 0.5-0.6 0.7-0.6zm11.3 3.1c-0.1 0.2 0 0.2 0.3 0.2 1.1 0.1 1.4 0.8 1.2 1.6-0.4 1.2-2.1 4.9-2.6 5.7-0.3 0.4-0.7 0.9-1 1.1-0.2 0.1-0.4 0.2-0.4 0.3 0 0.3 0.5 0.2 0.7 0.2 0.6 0 1.5 0 2.2 0 0.3 0 0.4 0 0.5-0.2 0.1-0.1 0-0.2-0.3-0.2-1-0.2-0.7-1.4-0.4-2.3 0.4-1.4 1.2-3.2 1.8-4.4 0.2-0.5 0.3-0.2 0.3 0 0.6 1.8 1.1 4.7 1.2 6.1 0 0.1 0 0.6 0 0.7 0.1 0.3 0.1 0.3 0.3 0.3 0.5 0 0.9-0.2 1.2-0.4 0.2-0.1 0.3-0.4 0.3-0.4 0.9-1.8 3.2-6.1 3.4-6.5 0.1-0.2 0.3-0.3 0.4 0 0.1 1.9 0.1 3.7 0 5.6 0 0.7-0.7 1.2-1.1 1.3-0.3 0.1-0.4 0.1-0.4 0.3 0.1 0.2 0.3 0.1 0.6 0.1 0.9-0.1 2.1-0.1 3.1 0 0.2 0 0.3 0 0.3-0.1 0.1-0.2 0.1-0.2-0.2-0.3-0.4-0.1-0.9-0.5-1-1-0.1-2-0.2-4.2-0.2-6.2 0.1-0.7 0.2-1 1.3-1.3 0.1 0 0.3-0.1 0.4-0.2 0-0.2-0.1-0.3-0.3-0.3-0.3 0-0.9 0-1.3 0.1-1 0-1.4 0.5-2 1.6-0.1 0.4-2 4-3 5.7-0.2 0.3-0.3 0.2-0.4 0-0.2-0.6-1.5-6.6-1.5-6.2-0.2-0.6-0.4-1-1-1.1-0.5-0.1-1.9-0.1-2-0.1-0.2 0-0.4 0.1-0.4 0.3zm-0.4 0c-0.1 0.2 0 0.2 0.3 0.2 1.1 0.1 1.4 0.8 1.2 1.6-0.4 1.2-2.2 4.9-2.6 5.7-0.3 0.4-0.7 0.9-1 1.1-0.2 0.1-0.4 0.2-0.4 0.3 0 0.3 0.4 0.2 0.7 0.2 0.5 0 1.5 0 2.2 0 0.3 0 0.4 0 0.5-0.2 0-0.1-0.1-0.2-0.3-0.2-1-0.2-0.7-1.4-0.5-2.3 0.5-1.4 1.3-3.2 1.8-4.4 0.3-0.5 0.4-0.2 0.4 0 0.5 1.8 1.1 4.7 1.2 6.1 0 0.1 0 0.6 0 0.7 0 0.3 0.1 0.3 0.3 0.3 0.5 0 0.9-0.2 1.2-0.4 0.1-0.1 0.3-0.4 0.3-0.4 0.9-1.8 3.1-6.1 3.4-6.5 0.1-0.2 0.3-0.3 0.4 0 0.1 1.9 0.1 3.7 0 5.6 0 0.7-0.7 1.2-1.1 1.3-0.3 0.1-0.4 0.1-0.4 0.3 0 0.2 0.3 0.1 0.6 0.1 0.9-0.1 2.1-0.1 3.1 0 0.2 0 0.3 0 0.3-0.1 0.1-0.2 0-0.2-0.2-0.3-0.4-0.1-0.9-0.5-1-1-0.1-2-0.2-4.2-0.2-6.2 0.1-0.7 0.2-1 1.3-1.3 0.1 0 0.3-0.1 0.3-0.2 0.1-0.2 0-0.3-0.2-0.3-0.3 0-0.9 0-1.3 0.1-1 0-1.5 0.5-2 1.6-0.2 0.4-2.1 4-3 5.7-0.2 0.3-0.3 0.2-0.4 0-0.2-0.6-1.5-6.6-1.5-6.2-0.2-0.6-0.4-1-1-1.1-0.5-0.1-2-0.1-2-0.1-0.2 0-0.4 0.1-0.4 0.3zm16.3 1.3c-0.1 0.5-1 5.7-1.3 6.2-0.1 0.5-0.4 1-1.2 1.1-0.2 0-0.7 0.1-0.6 0.4 0 0.1 0.1 0.1 0.3 0.1 0.3 0 2.4-0.1 3.4 0 0.4 0 0.6 0 0.6-0.2 0-0.3-0.4-0.3-0.7-0.4-0.5-0.1-0.5-0.5-0.5-1 0-0.9 1-5.9 1.1-6.2 0.2-0.6 0.3-1 1.4-1.1 0.2 0 0.3 0 0.4-0.2 0-0.2-0.1-0.2-0.5-0.2-0.8 0-2.7 0-3.1 0-0.5-0.1-0.7 0-0.7 0.1 0 0.1 0 0.3 0.2 0.3 0.3 0 1.3 0.2 1.2 1.1zm-0.4 0c-0.1 0.5-1 5.7-1.3 6.2-0.2 0.5-0.4 1-1.2 1.1-0.2 0-0.7 0.1-0.7 0.4 0 0.1 0.2 0.1 0.3 0.1 0.4 0 2.5-0.1 3.5 0 0.3 0 0.6 0 0.6-0.2 0-0.3-0.4-0.3-0.7-0.4-0.5-0.1-0.5-0.5-0.5-1 0-0.9 1-5.9 1.1-6.2 0.2-0.6 0.3-1 1.3-1.1 0.3 0 0.4 0 0.4-0.2 0.1-0.2-0.1-0.2-0.4-0.2-0.8 0-2.7 0-3.2 0-0.5-0.1-0.6 0-0.6 0.1 0 0.1 0 0.3 0.2 0.3 0.3 0 1.2 0.2 1.2 1.1zm5.5-1.5c-0.6 0-0.9 0-1 0.2 0 0.2 0.1 0.2 0.3 0.2 1 0 1.1 0.7 1 1.4 0 0.7-0.8 4.4-1.1 5.6-0.1 0.7-0.6 1.2-1.1 1.4-0.1 0-0.3 0.1-0.4 0.1-0.2 0.1-0.3 0.2-0.3 0.3 0 0 0 0.1 0.2 0.1 1 0 2.5 0 3.4 0 0.2 0 0.3 0 0.3-0.1 0.1-0.3-0.2-0.4-0.4-0.4-0.7-0.1-1-0.5-0.9-1.6 0-0.4 0.7-4.4 0.9-5.5 0-0.2 0.2-0.4 0.4-0.3 0.9 0.5 1.6 1.3 2.2 2.3 0.4 0.6 1.6 3 1.9 4.6 0.1 0.3 0.1 0.4 0.2 0.8 0 0.2 0.1 0.2 0.3 0.2 0.3 0 0.5 0 0.9 0 0.1 0 0.3-0.2 0.4-0.4 0.1-0.4 0.1-1 0.2-1.3 0.1-1 0.7-3.9 1.2-5.8 0.2-0.6 0.4-0.9 0.7-1.3 0.1-0.1 0.3-0.2 0.3-0.3 0.1-0.3-0.1-0.2-0.4-0.2-0.7 0.1-1.3 0-2.1-0.1-0.2 0-0.4 0.1-0.5 0.2-0.1 0.3 0.4 0.3 0.5 0.3 0.8 0.2 0.9 1 0.8 1.7-0.1 0.4-1.1 6-1.1 5.5-0.1 0.1-0.2 0-0.2-0.1-0.3-1.4-1.6-3.9-1.9-4.4-1.2-2-2.3-3.1-4.7-3.1zm-0.4 0c-0.6 0-0.9 0-1 0.2 0 0.2 0.1 0.2 0.3 0.2 1 0 1.1 0.7 1 1.4-0.1 0.7-0.8 4.4-1.1 5.6-0.1 0.7-0.6 1.2-1.1 1.4-0.2 0-0.3 0.1-0.4 0.1-0.2 0.1-0.3 0.2-0.3 0.3 0 0 0 0.1 0.1 0.1 1.1 0 2.6 0 3.5 0 0.2 0 0.3 0 0.3-0.1 0.1-0.3-0.2-0.4-0.4-0.4-0.7-0.1-1-0.5-0.9-1.6 0-0.4 0.7-4.4 0.9-5.5 0-0.2 0.2-0.4 0.4-0.3 0.9 0.5 1.6 1.3 2.2 2.3 0.4 0.6 1.6 3 1.9 4.6 0.1 0.3 0.1 0.4 0.2 0.8 0 0.2 0.1 0.2 0.2 0.2 0.4 0 0.6 0 0.9 0 0.2 0 0.4-0.2 0.5-0.4 0-0.4 0.1-1 0.2-1.3 0.1-1 0.7-3.9 1.2-5.8 0.2-0.6 0.3-0.9 0.7-1.3 0.1-0.1 0.3-0.2 0.3-0.3 0.1-0.3-0.1-0.2-0.4-0.2-0.7 0.1-1.3 0-2.2-0.1-0.1 0-0.4 0.1-0.4 0.2-0.1 0.3 0.4 0.3 0.5 0.3 0.7 0.2 0.9 1 0.7 1.7 0 0.4-1 6-1 5.5-0.1 0.1-0.2 0-0.2-0.1-0.3-1.4-1.6-3.9-1.9-4.4-1.2-2-2.3-3.1-4.7-3.1zm19.6-6c0 0.2 0 0.3 0.4 0.4 0.4 0.1 2.1 0.4 1.9 1.8-0.1 0.9-1.6 9.6-2.1 10.5-0.3 0.8-0.6 1.5-2 1.7-0.3 0.1-1.1 0.2-1.1 0.7 0 0.3 0.3 0.3 0.5 0.3 0.6 0 4.2-0.3 5.9-0.1 0.6 0.1 1 0 1-0.3 0.1-0.5-0.8-0.4-1.3-0.7-0.9-0.5-0.9-0.8-0.9-1.7 0.1-1.9 1.6-8.9 2.1-11.2 0.1-0.5 0.3-0.7 0.8-0.7-0.1 0 1.4-0.1 2.7 0 1.4 0 2.9 0.7 2.7 2.1-0.3 1.5-2.6 2.7-4.2 3.3-0.9 0.3-1.2 0.3-1.2 1.1 0.1 3.6 3.7 8.2 5.6 8.2 1.3 0 2.3-0.4 3.1-1.1 0.3-0.2 0.4-0.4 0.2-0.6-0.1-0.1-0.2-0.1-0.4 0-0.3 0.2-0.6 0.2-1.2 0.2-1.9 0-4.8-3.4-5.2-6.5-0.1-0.4-0.1-0.7 0.4-1 1.3-0.8 4.6-2 5-3.9 0.4-2.5-1.9-2.7-4.4-2.7-1.6 0-5.8 0.2-7.2 0-0.8-0.2-1.1 0-1.1 0.2zm-0.7 0c0 0.2 0 0.3 0.4 0.4 0.4 0.1 2.1 0.4 1.9 1.8-0.1 0.9-1.6 9.6-2.1 10.5-0.3 0.8-0.6 1.5-1.9 1.7-0.4 0.1-1.2 0.2-1.1 0.7-0.1 0.3 0.2 0.3 0.4 0.3 0.6 0 4.3-0.3 6-0.1 0.5 0.1 0.9 0 1-0.3 0-0.5-0.9-0.4-1.4-0.7-0.8-0.5-0.9-0.8-0.9-1.7 0.1-1.9 1.6-8.9 2.1-11.2 0.1-0.5 0.3-0.7 0.8-0.7 0 0 1.5-0.1 2.7 0 1.4 0 2.9 0.7 2.7 2.1-0.3 1.5-2.6 2.7-4.2 3.3-0.9 0.3-1.2 0.3-1.2 1.1 0.1 3.6 3.7 8.2 5.6 8.2 1.4 0 2.3-0.4 3.1-1.1 0.3-0.2 0.4-0.4 0.3-0.6-0.2-0.1-0.3-0.1-0.5 0-0.3 0.2-0.6 0.2-1.2 0.2-1.9 0-4.8-3.4-5.2-6.5-0.1-0.4-0.1-0.7 0.4-1 1.3-0.8 4.7-2 5-3.9 0.5-2.5-1.9-2.7-4.4-2.7-1.5 0-5.8 0.2-7.2 0-0.8-0.2-1 0-1.1 0.2zm22.1 5.7c-3.5 0-5.8 3.3-6.2 5.3-0.4 2.6 0.7 4.6 3.5 4.6 2.8 0 5.5-2.3 6.1-5.6 0.5-2.7-0.8-4.3-3.4-4.3zm2.1 4.6c-0.6 3.3-2.6 4.7-4.2 4.7-1.7 0-3.2-1.5-2.7-4.2 0.6-3.3 3-4.5 4.1-4.5 2.1 0 3.3 1.7 2.8 4zm-2.5-4.6c-3.5 0-5.8 3.3-6.2 5.3-0.4 2.6 0.7 4.6 3.5 4.6 2.8 0 5.5-2.3 6.1-5.6 0.5-2.7-0.8-4.3-3.4-4.3zm2.1 4.6c-0.6 3.3-2.6 4.7-4.2 4.7-1.7 0-3.2-1.5-2.7-4.2 0.6-3.3 3-4.5 4.1-4.5 2.1 0 3.2 1.7 2.8 4zm7.9-4.5c-1.7 0-3.3 1.4-3.5 2.6-0.2 1 0.2 1.5 1 1.9 0.4 0.3 1.6 0.9 2.1 1.2 0.5 0.4 0.8 0.6 0.7 1.5-0.2 1.1-1.3 1.9-2.7 1.9-1 0-1.6-0.6-1.4-1.2 0-0.2 0.2-0.5 0.3-0.7 0.1-0.1 0.1-0.3 0-0.3-0.1-0.1-0.3 0.1-0.4 0.1-0.3 0.2-1 0.8-1.1 1.4-0.1 0.9 0.7 1.3 2.4 1.3 2.1 0 3.8-1.5 4.1-3.3 0.1-0.6 0-1.3-0.9-1.9-0.6-0.3-1.6-0.8-2.4-1.2-0.3-0.2-0.7-0.4-0.6-1.1 0.2-1 1.4-1.6 2.2-1.6 0.7 0 1.4 0.3 1.2 1.1 0 0.2-0.1 0.3-0.1 0.4-0.2 0.2-0.2 0.4-0.1 0.5 0.1 0.1 0.3 0 0.6-0.3 0.2-0.2 0.6-0.7 0.6-1.1 0.2-0.8-0.5-1.2-2-1.2zm-0.4 0c-1.7 0-3.3 1.4-3.5 2.6-0.2 1 0.2 1.5 1 1.9 0.4 0.3 1.6 0.9 2.1 1.2 0.5 0.4 0.8 0.6 0.7 1.5-0.2 1.1-1.3 1.9-2.7 1.9-1 0-1.6-0.6-1.5-1.2 0.1-0.2 0.3-0.5 0.4-0.7 0.1-0.1 0.1-0.3 0-0.3-0.1-0.1-0.3 0.1-0.4 0.1-0.3 0.2-1 0.8-1.1 1.4-0.1 0.9 0.7 1.3 2.4 1.3 2.1 0 3.8-1.5 4.1-3.3 0.1-0.6-0.1-1.3-0.9-1.9-0.6-0.3-1.6-0.8-2.4-1.2-0.3-0.2-0.7-0.4-0.6-1.1 0.2-1 1.4-1.6 2.1-1.6 0.8 0 1.4 0.3 1.3 1.1 0 0.2-0.1 0.3-0.2 0.4-0.1 0.2-0.1 0.4 0 0.5 0.1 0.1 0.3 0 0.5-0.3 0.3-0.2 0.7-0.7 0.7-1.1 0.2-0.8-0.5-1.2-2-1.2zm12.9 1.7c0 0.2-0.2 1.1-0.4 2.1 0 0.2-0.2 0.4-0.5 0.4-1.5 0-3.2 0-4.7 0-0.4 0-0.4-0.2-0.4-0.3 0.2-1.1 0.4-2 0.4-2.1 0.2-0.7 0.4-1 1.4-1.2 0.2 0 0.3 0 0.4-0.2 0-0.2-0.1-0.2-0.4-0.2-0.9 0-2.8 0-3.2 0-0.5-0.1-0.6 0-0.7 0.2 0 0 0 0.2 0.2 0.2 0.3 0 1.4 0.2 1.2 1.1 0 0.5-1 5.7-1.2 6.2-0.3 0.5-0.4 1-1.2 1.1-0.2 0-0.7 0.1-0.7 0.4 0 0.1 0.1 0.1 0.3 0.1 0.3 0 2.4-0.1 3.4 0 0.4 0 0.6 0 0.6-0.2 0-0.3-0.4-0.3-0.6-0.4-0.6-0.2-0.6-0.5-0.6-1 0-0.4 0.2-1.6 0.5-2.9 0-0.2 0-0.3 0.4-0.3 1.6 0 3.3 0 4.9 0 0.3 0 0.3 0.3 0.3 0.5-0.3 1.3-0.5 2.5-0.6 2.7-0.2 0.5-0.5 1-1.3 1.1-0.2 0-0.6 0.1-0.6 0.4 0 0.1 0.1 0.1 0.2 0.1 0.4 0 2.5-0.1 3.5 0 0.4 0 0.6 0 0.6-0.2 0-0.3-0.4-0.2-0.7-0.4-0.5-0.3-0.5-0.5-0.5-1 0-0.9 1-5.9 1.1-6.1 0.2-0.7 0.3-1 1.3-1.2 0.3 0 0.4 0 0.5-0.2 0-0.2-0.2-0.2-0.5-0.2-0.8 0-2.7 0-3.2 0-0.4-0.1-0.6 0-0.6 0.2 0 0 0 0.2 0.2 0.2 0.2 0 1.3 0.2 1.2 1.1zm-0.4 0c0 0.2-0.2 1.1-0.4 2.1 0 0.2-0.2 0.4-0.5 0.4-1.6 0-3.2 0-4.7 0-0.4 0-0.5-0.2-0.4-0.3 0.2-1.1 0.4-2 0.4-2.1 0.2-0.7 0.3-1 1.4-1.2 0.2 0 0.3 0 0.4-0.2 0-0.2-0.1-0.2-0.5-0.2-0.8 0-2.7 0-3.1 0-0.5-0.1-0.7 0-0.7 0.2 0 0 0 0.2 0.2 0.2 0.3 0 1.4 0.2 1.2 1.1 0 0.5-1 5.7-1.2 6.2-0.3 0.5-0.4 1-1.2 1.1-0.3 0-0.7 0.1-0.7 0.4 0 0.1 0.1 0.1 0.3 0.1 0.3 0 2.4-0.1 3.4 0 0.4 0 0.6 0 0.6-0.2 0-0.3-0.4-0.3-0.7-0.4-0.5-0.2-0.5-0.5-0.5-1 0-0.4 0.2-1.6 0.4-2.9 0.1-0.2 0.1-0.3 0.5-0.3 1.6 0 3.3 0 4.8 0 0.4 0 0.4 0.3 0.4 0.5-0.3 1.3-0.5 2.5-0.6 2.7-0.2 0.5-0.5 1-1.3 1.1-0.2 0-0.7 0.1-0.6 0.4 0 0.1 0.1 0.1 0.2 0.1 0.4 0 2.5-0.1 3.5 0 0.3 0 0.6 0 0.6-0.2 0-0.3-0.4-0.2-0.7-0.4-0.5-0.3-0.5-0.5-0.5-1 0-0.9 1-5.9 1.1-6.1 0.2-0.7 0.3-1 1.3-1.2 0.2 0 0.4 0 0.5-0.2 0-0.2-0.2-0.2-0.5-0.2-0.8 0-2.7 0-3.2 0-0.5-0.1-0.6 0-0.6 0.2 0 0 0 0.2 0.2 0.2 0.2 0 1.3 0.2 1.2 1.1zm9.3-1.1c-0.1 0.1-0.2 0.2-0.2 0.3 0.1 0.3 0 0.9-0.3 1.3-0.9 1.6-2.9 4.6-4.1 5.7-0.6 0.6-1 1-1.5 1.1-0.2 0.1-0.4 0.1-0.5 0.4 0 0.1 0.2 0.1 0.5 0.1 0.9-0.1 1.6-0.1 2.3 0 0.2 0 0.4 0 0.4-0.1 0.1-0.3-0.4-0.4-0.4-0.5-0.2-0.4 0.6-1.7 1-2.2 0.1-0.1 0.2-0.2 0.7-0.2 0.3 0 2.8 0 3.2 0 0.2 0.1 0.2 0.1 0.3 0.3 0.1 0.2 0.3 1.2 0.3 1.5 0 0.5-0.2 0.7-0.7 0.9-0.1 0.1-0.1 0.1-0.2 0.2 0 0.2 0.2 0.1 0.4 0.1 0.9 0 1.7-0.2 2.8 0 0.1 0 0.4 0 0.4-0.2 0-0.2 0-0.2-0.1-0.2-1-0.2-1.1-0.9-1.3-1.6-0.1-0.3-1.5-6.7-1.6-7.1 0-0.3-0.1-0.4-0.3-0.3-0.3 0-0.9 0.3-1.1 0.5zm0.2 1.5c0.1 0 0.2 0.2 0.2 0.3 0.3 0.9 0.8 2.5 0.9 3.3 0.1 0.3 0 0.3-0.2 0.3-1.2 0.1-2 0.1-3.1 0.1-0.3 0-0.3-0.1-0.2-0.4 0.1-0.2 2-3 2-3.2 0.1-0.1 0.3-0.4 0.4-0.4zm-0.6-1.5c-0.1 0.1-0.2 0.2-0.2 0.3 0.1 0.3 0 0.9-0.3 1.3-1 1.6-2.9 4.6-4.1 5.7-0.6 0.6-1.1 1-1.5 1.1-0.2 0.1-0.4 0.1-0.5 0.4 0 0.1 0.2 0.1 0.5 0.1 0.9-0.1 1.6-0.1 2.3 0 0.2 0 0.4 0 0.4-0.1 0.1-0.3-0.4-0.4-0.4-0.5-0.2-0.4 0.6-1.7 1-2.2 0.1-0.1 0.2-0.2 0.7-0.2 0.3 0 2.7 0 3.2 0 0.2 0.1 0.2 0.1 0.3 0.3 0.1 0.2 0.3 1.2 0.3 1.5-0.1 0.5-0.2 0.7-0.7 0.9-0.1 0.1-0.2 0.1-0.2 0.2 0 0.2 0.2 0.1 0.4 0.1 0.9 0 1.7-0.2 2.8 0 0.1 0 0.3 0 0.4-0.2 0-0.2 0-0.2-0.1-0.2-1-0.2-1.1-0.9-1.3-1.6-0.1-0.3-1.5-6.7-1.6-7.1-0.1-0.3-0.1-0.4-0.3-0.3-0.3 0-0.9 0.3-1.1 0.5zm0.2 1.5c0.1 0 0.2 0.2 0.2 0.3 0.3 0.9 0.7 2.5 0.9 3.3 0 0.3 0 0.3-0.3 0.3-1.1 0.1-1.9 0.1-3.1 0.1-0.2 0-0.2-0.1-0.1-0.4 0.1-0.2 1.9-3 2-3.2 0.1-0.1 0.3-0.4 0.4-0.4zm8.4-1.9c-0.5 0-0.9 0-0.9 0.2-0.1 0.2 0.1 0.2 0.2 0.2 1 0 1.2 0.7 1.1 1.4-0.1 0.7-0.8 4.4-1.1 5.6-0.2 0.7-0.6 1.2-1.2 1.4-0.1 0-0.2 0.1-0.4 0.1-0.1 0.1-0.2 0.2-0.2 0.3-0.1 0-0.1 0.1 0.1 0.1 1.1 0 2.5 0 3.4 0 0.2 0 0.3 0 0.4-0.1 0.1-0.3-0.3-0.4-0.5-0.4-0.7-0.1-1-0.5-0.9-1.6 0.1-0.4 0.7-4.4 0.9-5.5 0-0.2 0.2-0.4 0.5-0.3 0.8 0.5 1.6 1.3 2.2 2.3 0.3 0.6 1.5 3 1.8 4.6 0.1 0.3 0.1 0.4 0.2 0.8 0 0.2 0.1 0.2 0.3 0.2 0.3 0 0.6 0 0.9 0 0.1 0 0.3-0.2 0.4-0.4 0.1-0.4 0.2-1 0.2-1.3 0.2-1 0.7-3.9 1.3-5.8 0.2-0.6 0.3-0.9 0.6-1.3 0.1-0.1 0.4-0.2 0.4-0.3 0-0.3-0.1-0.2-0.5-0.2-0.6 0.1-1.3 0-2.1-0.1-0.2 0-0.4 0.1-0.5 0.2-0.1 0.3 0.4 0.3 0.6 0.3 0.7 0.2 0.8 1 0.7 1.7 0 0.4-1 6-1.1 5.5-0.1 0.1-0.1 0-0.2-0.1-0.2-1.4-1.6-3.9-1.9-4.4-1.1-2-2.3-3.1-4.7-3.1zm-0.4 0c-0.5 0-0.9 0-0.9 0.2-0.1 0.2 0.1 0.2 0.2 0.2 1 0 1.1 0.7 1.1 1.4-0.1 0.7-0.8 4.4-1.1 5.6-0.2 0.7-0.7 1.2-1.2 1.4-0.1 0-0.2 0.1-0.4 0.1-0.1 0.1-0.2 0.2-0.3 0.3 0 0 0 0.1 0.2 0.1 1.1 0 2.5 0 3.4 0 0.2 0 0.3 0 0.3-0.1 0.2-0.3-0.2-0.4-0.4-0.4-0.7-0.1-1-0.5-0.9-1.6 0.1-0.4 0.7-4.4 0.9-5.5 0-0.2 0.2-0.4 0.4-0.3 0.9 0.5 1.6 1.3 2.3 2.3 0.3 0.6 1.5 3 1.8 4.6 0.1 0.3 0.1 0.4 0.2 0.8 0 0.2 0.1 0.2 0.3 0.2 0.3 0 0.6 0 0.9 0 0.1 0 0.3-0.2 0.4-0.4 0.1-0.4 0.1-1 0.2-1.3 0.2-1 0.7-3.9 1.3-5.8 0.1-0.6 0.3-0.9 0.6-1.3 0.1-0.1 0.4-0.2 0.4-0.3 0-0.3-0.1-0.2-0.5-0.2-0.6 0.1-1.3 0-2.1-0.1-0.2 0-0.4 0.1-0.5 0.2-0.1 0.3 0.4 0.3 0.6 0.3 0.7 0.2 0.8 1 0.7 1.7-0.1 0.4-1.1 6-1.1 5.5-0.1 0.1-0.2 0-0.2-0.1-0.2-1.4-1.6-3.9-1.9-4.4-1.1-2-2.3-3.1-4.7-3.1zm12.9 1.5c-0.1 0.5-1 5.7-1.3 6.2-0.2 0.5-0.4 1-1.2 1.1-0.2 0-0.7 0.1-0.7 0.4 0 0.1 0.2 0.1 0.3 0.1 0.4 0 2.5-0.1 3.5 0 0.3 0 0.6 0 0.6-0.2 0-0.3-0.4-0.3-0.7-0.4-0.6-0.1-0.6-0.5-0.5-1 0-0.9 1-5.9 1.1-6.2 0.2-0.6 0.3-1 1.3-1.1 0.3 0 0.4 0 0.4-0.2 0.1-0.2-0.1-0.2-0.4-0.2-0.8 0-2.7 0-3.2 0-0.5-0.1-0.6 0-0.6 0.1 0 0.1 0 0.3 0.2 0.3 0.3 0 1.2 0.2 1.2 1.1zm-0.5 0c0 0.5-0.9 5.7-1.2 6.2-0.2 0.5-0.4 1-1.2 1.1-0.2 0-0.7 0.1-0.7 0.4 0 0.1 0.2 0.1 0.3 0.1 0.4 0 2.4-0.1 3.5 0 0.3 0 0.5 0 0.6-0.2 0-0.3-0.4-0.3-0.7-0.4-0.6-0.1-0.6-0.5-0.5-1 0-0.9 1-5.9 1.1-6.2 0.2-0.6 0.3-1 1.3-1.1 0.2 0 0.4 0 0.4-0.2 0.1-0.2-0.1-0.2-0.4-0.2-0.9 0-2.7 0-3.2 0-0.5-0.1-0.6 0-0.6 0.1 0 0.1 0 0.3 0.2 0.3 0.3 0 1.2 0.2 1.1 1.1z"/>
		</g>
	</g>
</svg>